# xmcd
#
# Track frame offsets:
#	182
#	24272
#	51060
#	65250
#	88602
#
# Disc length: 1388 seconds
#
# Revision: 0
# Processed by: cddbd v1.5.1PL0 Copyright (c) Steve Scherf et al.
# Submitted via: dBpowerAMP V4.0
#
DISCID=32056a05
DTITLE=Shawn Lee - Single
DYEAR=1900
DGENRE=
TTITLE0=Cryin Blue
TTITLE1=Hangin By A Thread
TTITLE2=Married
TTITLE3=Don't Let The Past Change The Future
TTITLE4=Porcelain Doll
EXTD=
EXTT0=
EXTT1=
EXTT2=
EXTT3=
EXTT4=
PLAYORDER=
